<svg width="24" height="20" viewBox="0 0 24 20" fill="none" xmlns="http://www.w3.org/2000/svg">
    <path
        d="M21.6 0H2.4C1.08 0 0.012 1.125 0.012 2.5L0 17.5C0 18.875 1.08 20 2.4 20H21.6C22.92 20 24 18.875 24 17.5V2.5C24 1.125 22.92 0 21.6 0ZM21.12 5.3125L12.636 10.8375C12.252 11.0875 11.748 11.0875 11.364 10.8375L2.88 5.3125C2.75967 5.24214 2.6543 5.14708 2.57027 5.03307C2.48623 4.91906 2.42527 4.78847 2.39109 4.64921C2.35691 4.50995 2.3502 4.36492 2.37139 4.22288C2.39257 4.08085 2.4412 3.94477 2.51434 3.82288C2.58747 3.70099 2.68359 3.59582 2.79687 3.51374C2.91015 3.43167 3.03825 3.37439 3.17339 3.34537C3.30854 3.31636 3.44794 3.31621 3.58315 3.34494C3.71835 3.37366 3.84656 3.43067 3.96 3.5125L12 8.75L20.04 3.5125C20.1534 3.43067 20.2816 3.37366 20.4169 3.34494C20.5521 3.31621 20.6915 3.31636 20.8266 3.34537C20.9618 3.37439 21.0898 3.43167 21.2031 3.51374C21.3164 3.59582 21.4125 3.70099 21.4857 3.82288C21.5588 3.94477 21.6074 4.08085 21.6286 4.22288C21.6498 4.36492 21.6431 4.50995 21.6089 4.64921C21.5747 4.78847 21.5138 4.91906 21.4297 5.03307C21.3457 5.14708 21.2403 5.24214 21.12 5.3125Z"
        fill="white" />
</svg>