<svg width="60" height="60" viewBox="0 0 60 60" fill="none" xmlns="http://www.w3.org/2000/svg">
<g clip-path="url(#clip0_73_5480)">
<path d="M4.83984 49.354C4.30859 49.354 3.87109 49.7915 3.87109 50.3228C3.87109 50.854 4.30859 51.2915 4.83984 51.2915C5.37109 51.2915 5.80859 50.854 5.80859 50.3228C5.80859 49.7915 5.37109 49.354 4.83984 49.354Z" fill="#06779B"/>
<path d="M18.3867 30H20.3242V28.0625H18.3867V30Z" fill="#06779B"/>
<path d="M26.1289 28.0625V30H28.0612V28.0625H26.1289Z" fill="#06779B"/>
<path d="M22.2617 30H24.194V28.0625H22.2617V30Z" fill="#06779B"/>
<path d="M18.3867 33.8698H20.3242V31.9375H18.3867V33.8698Z" fill="#06779B"/>
<path d="M22.2617 33.8698H24.194V31.9375H22.2617V33.8698Z" fill="#06779B"/>
<path d="M26.1289 33.8698H28.0612V31.9375H26.1289V33.8698Z" fill="#06779B"/>
<path d="M18.3867 37.7394H20.3242V35.8071H18.3867V37.7394Z" fill="#06779B"/>
<path d="M26.1289 37.7394H28.0612V35.8071H26.1289V37.7394Z" fill="#06779B"/>
<path d="M22.2617 37.7394H24.194V35.8071H22.2617V37.7394Z" fill="#06779B"/>
<path d="M18.3867 41.6147H20.3242V39.6772H18.3867V41.6147Z" fill="#06779B"/>
<path d="M26.1289 41.6147H28.0612V39.6772H26.1289V41.6147Z" fill="#06779B"/>
<path d="M22.2617 41.6147H24.194V39.6772H22.2617V41.6147Z" fill="#06779B"/>
<path d="M58.0625 54.1927V55.776C56.375 57.6615 53.9948 58.0625 52.2604 58.0625C49.3073 58.0625 46.651 56.4167 45.3333 53.7604L45.0625 53.224H4.83854C3.23437 53.224 1.9375 51.9271 1.9375 50.3229C1.9375 48.7188 3.23437 47.4219 4.83854 47.4219H23.6354C23.651 47.4219 23.6615 47.4271 23.6667 47.4323L23.6719 47.4219H45.0625L45.3333 46.8802C46.651 44.2292 49.3073 42.5781 52.2604 42.5781C53.9948 42.5781 56.3802 42.9844 58.0625 44.8698V46.4531H50.3229V54.1927H58.0625ZM35.8073 39.6771H39.6771V43.8542C38.5417 44.5104 37.3281 45.0625 36.0469 45.4844H35.8073V39.6771ZM31.9375 35.8073H43.5469V40.9323C42.9427 41.526 42.2969 42.0781 41.6146 42.5885V37.7396H33.8698V45.4844H31.9375V35.8073ZM41.5573 30L40.5885 14.5156H34.8958L33.9271 30H31.9375V24.1927H28.0625V20.3229H26.1302V24.1927H24.1927V18.3854H22.2604V24.1927H20.3229V20.3229H18.3854V24.1927H14.5156V38.7396C12.0625 35.474 10.6458 31.4271 10.6458 27.099C10.6458 16.4271 19.3281 7.73958 30 7.73958C40.6719 7.73958 49.3542 16.4271 49.3542 27.099C49.3542 31.4167 47.9375 35.4583 45.4844 38.724V30H41.5573ZM36.599 18.3854L36.7188 16.4531H38.7656L38.8854 18.3854H36.599ZM36.474 20.3229H39.0104L39.6146 30H35.8698L36.474 20.3229ZM31.9375 31.9375H43.5469V33.8698H31.9375V31.9375ZM23.9688 45.4844C21.0729 44.5365 18.5208 42.9688 16.4531 40.9479V26.1302H30V45.4844H23.9688ZM10.0052 42.6875L11.1823 40.724L10.8333 40.2083C9 37.5365 7.77083 34.5677 7.17708 31.375L7.0625 30.7656L4.83854 30.2135V23.9844L7.0625 23.4271L7.17708 22.8125C7.77083 19.625 9 16.6563 10.8333 13.9844L11.1823 13.4687L10.0052 11.5052L14.4115 7.10417L16.3698 8.28125L16.8854 7.92708C19.5573 6.09896 22.5313 4.86458 25.7188 4.27083L26.3281 4.15625L26.8854 1.9375H33.1146L33.6719 4.15625L34.2812 4.27083C37.4688 4.86458 40.4427 6.09896 43.1146 7.92708L43.6302 8.28125L45.5885 7.10417L49.9948 11.5052L48.8177 13.4687L49.1667 13.9844C51 16.6563 52.2292 19.625 52.8229 22.8125L52.9375 23.4271L55.1615 23.9844V30.2135L52.9375 30.7656L52.8229 31.375C52.2344 34.5469 51.0156 37.5052 49.1979 40.1667L47.8281 41.7344C46.2083 42.5677 44.8281 43.8438 43.8854 45.4844H40.7292C47.1875 41.7344 51.2917 34.8177 51.2917 27.099C51.2917 15.3542 41.7396 5.80729 30 5.80729C18.2604 5.80729 8.70833 15.3542 8.70833 27.099C8.70833 34.8333 12.8021 41.7396 19.2604 45.4844H12.8021L10.0052 42.6875ZM60 48.3854V44.1771L59.7865 43.9062C58.0885 41.8073 55.4167 40.6458 52.2604 40.6458C51.8802 40.6458 51.5156 40.6771 51.1458 40.7188C52.8073 38.1458 53.9688 35.3438 54.6042 32.3438L57.099 31.724V22.4688L54.6042 21.8438C53.9688 18.8281 52.7917 15.9948 51.1146 13.4063L52.4323 11.2083L45.8906 4.66667L43.6875 5.98437C41.1042 4.30729 38.2656 3.13021 35.2448 2.48958L34.625 0H25.375L24.7552 2.48958C21.7344 3.13021 18.8958 4.30729 16.3125 5.98437L14.1094 4.66667L7.56771 11.2083L8.88542 13.4063C7.20833 15.9948 6.03125 18.8281 5.39583 21.8438L2.90104 22.4688V31.724L5.39583 32.3438C6.03125 35.3646 7.20833 38.1979 8.88542 40.7865L7.56771 42.9844L10.0677 45.4844H4.83854C2.17187 45.4844 0 47.6562 0 50.3229C0 52.9896 2.17187 55.1615 4.83854 55.1615H43.8854C45.6146 58.1615 48.7708 60 52.2604 60C55.4115 60 58.0885 58.8385 59.7865 56.7396L60 56.474V52.2604H52.2604V48.3854H60Z" fill="#06779B"/>
</g>
<defs>
<clipPath id="clip0_73_5480">
<rect width="60" height="60" fill="white"/>
</clipPath>
</defs>
</svg>
