<svg width="60" height="60" viewBox="0 0 60 60" fill="none" xmlns="http://www.w3.org/2000/svg">
<g clip-path="url(#clip0_73_5442)">
<path d="M54.349 28.2448C52.0052 25.3073 48.8542 22.4271 45.0521 19.8177C44.5208 17.0208 43.7708 14.4115 42.8177 12.026C46.6042 11.9115 49.8229 12.4635 52.25 13.651C52.099 14.0729 52 14.5208 52 15C52 17.2083 53.7917 19 56 19C56.2656 19 56.526 18.974 56.7812 18.9219C57.3958 21.5938 56.5521 24.8333 54.349 28.2448ZM56.3802 42.3646C55.5 44.3594 53.7448 45.8594 51.1615 46.8333C48.8073 47.7135 45.9583 48.0885 42.8073 47.9948C43.7708 45.5885 44.5312 42.9583 45.0573 40.1406C48.8177 37.5573 52 34.6562 54.3646 31.6667C56.875 35.5365 57.724 39.3177 56.3802 42.3646ZM30 58C26.3177 58 22.776 55.0104 20.1458 49.7552C23.2969 49.4219 26.599 48.7083 30.0052 47.5938C33.3958 48.6979 36.7135 49.4271 39.849 49.7708C37.2188 55.0208 33.6771 58 30 58ZM7.75 46.349C7.90104 45.9219 8 45.474 8 45C8 42.7917 6.20833 41 4 41C3.73437 41 3.47396 41.026 3.21875 41.0781C2.60417 38.4062 3.44792 35.1667 5.64583 31.7552C7.99479 34.6927 11.1458 37.5729 14.9479 40.1823C15.474 42.974 16.2292 45.5833 17.1823 47.974C13.3958 48.0885 10.1771 47.5312 7.75 46.349ZM4 47C2.90104 47 2 46.099 2 45C2 43.8958 2.90104 43 4 43C5.09896 43 6 43.8958 6 45C6 46.099 5.09896 47 4 47ZM3.61979 17.6302C4.5 15.6406 6.25521 14.1406 8.83854 13.1667C10.9635 12.3698 13.4896 11.9792 16.2865 11.9792C16.5781 11.9792 16.8854 12.0052 17.1823 12.0104C16.224 14.4167 15.4688 17.0417 14.9427 19.8542C11.1875 22.4375 8 25.3438 5.63542 28.3333C3.125 24.4583 2.27604 20.6771 3.61979 17.6302ZM21.5885 7.72917C22.0313 7.89583 22.5052 8 23 8C25.2083 8 27 6.20833 27 4C27 3.56771 26.9115 3.16146 26.7865 2.77604C27.8333 2.27083 28.9115 2 30 2C33.6771 2 37.224 4.98438 39.849 10.2448C36.7083 10.5729 33.4063 11.2865 30.0052 12.401C26.6146 11.2917 23.2865 10.5625 20.1458 10.224C20.5938 9.33333 21.0781 8.50521 21.5885 7.72917ZM23 2C24.099 2 25 2.90104 25 4C25 5.09896 24.099 6 23 6C21.8958 6 21 5.09896 21 4C21 2.90104 21.8958 2 23 2ZM36.6354 15.026C35.474 14.4844 34.3177 13.9896 33.1562 13.5365C35.7656 12.8229 38.2917 12.375 40.7188 12.1615C41.5156 14.0573 42.1771 16.099 42.6927 18.2865C40.8021 17.125 38.776 16.026 36.6354 15.026ZM14.4792 37.3802C11.3646 35.0521 8.77604 32.5521 6.84375 30.0365C8.79167 27.474 11.3958 24.9583 14.4792 22.651C14.1615 25.0208 14 27.4844 14 30C14 32.526 14.1615 35 14.4792 37.3802ZM26.8333 13.5365C25.6771 13.9896 24.5208 14.4844 23.3646 15.026C21.2708 16.0052 19.2396 17.099 17.3073 18.3021C17.8229 16.099 18.4896 14.0417 19.2917 12.1406C21.6927 12.3542 24.224 12.8281 26.8333 13.5365ZM19.2813 47.8385C18.4844 45.9427 17.8229 43.901 17.3073 41.7083C19.1979 42.875 21.224 43.974 23.3646 44.974C24.526 45.5208 25.6927 46.0052 26.8542 46.4583C24.2396 47.1719 21.7083 47.625 19.2813 47.8385ZM45.5208 22.6198C48.6302 24.9427 51.224 27.4479 53.1562 29.9583C51.2083 32.5208 48.6042 35.0417 45.5208 37.349C45.8385 34.974 46 32.5156 46 30C46 27.474 45.8385 25 45.5208 22.6198ZM44 30C44 33.099 43.7396 36.1094 43.2396 38.9688C40.9062 40.5313 38.401 41.9427 35.7865 43.1615C33.849 44.0677 31.9063 44.849 29.9844 45.4948C28.0729 44.8385 26.1354 44.0625 24.2135 43.1615C21.5313 41.9115 19.0365 40.4948 16.7604 38.9844C16.2604 36.125 16 33.1042 16 30C16 26.8958 16.2604 23.8906 16.7604 21.0313C19.0938 19.4688 21.599 18.0573 24.2135 16.8333C26.1458 15.9323 28.0885 15.1615 30.0052 14.5104C31.9219 15.1667 33.8594 15.9323 35.7865 16.8333C38.4688 18.0885 40.9635 19.5052 43.2396 21.0156C43.7396 23.875 44 26.8906 44 30ZM33.1562 46.4635C34.3125 46.0104 35.474 45.5156 36.6302 44.974C38.7292 43.9948 40.7604 42.8958 42.6927 41.6979C42.1771 43.9062 41.5052 45.9688 40.7031 47.875C38.3021 47.6563 35.7604 47.1771 33.1562 46.4635ZM56 13C57.099 13 58 13.8958 58 15C58 16.099 57.099 17 56 17C54.8958 17 54 16.099 54 15C54 13.8958 54.8958 13 56 13ZM56 11C54.9948 11 54.0938 11.3802 53.3906 11.9896C50.4688 10.4896 46.5573 9.82292 41.9792 10.0625C38.974 3.66146 34.6406 0 30 0C28.5313 0 27.099 0.380208 25.7188 1.08854C25.0052 0.416667 24.0521 0 23 0C20.7917 0 19 1.79167 19 4C19 4.98438 19.3698 5.875 19.9583 6.56771C19.2552 7.63021 18.6042 8.79688 18.026 10.0521C14.2917 9.85938 10.9063 10.2552 8.13021 11.2969C5.06771 12.4427 2.88021 14.3594 1.79167 16.8229C0.0885417 20.6771 1.17708 25.375 4.375 30.0365C1.43229 34.3333 0.380208 38.5313 1.375 42.0052C0.541667 42.7396 0 43.8021 0 45C0 47.2083 1.79167 49 4 49C5 49 5.90104 48.6146 6.60417 48.0104C9.14063 49.3177 12.4167 49.9948 16.2344 49.9948C16.8125 49.9948 17.4167 49.9635 18.0156 49.9323C21.0208 56.3333 25.3594 60 30 60C34.6406 60 38.974 56.3385 41.9792 49.9427C42.5729 49.974 43.1667 50.0052 43.7396 50.0052C46.776 50.0052 49.5365 49.5781 51.8646 48.7031C54.9271 47.5521 57.1198 45.6458 58.2083 43.1771C59.9115 39.3177 58.8229 34.625 55.625 29.9583C58.5677 25.6667 59.6198 21.4688 58.625 17.9948C59.4583 17.2604 60 16.1979 60 15C60 12.7917 58.2083 11 56 11Z" fill="#06779B"/>
<path d="M37 30H28.0833L34.4792 22H37V30ZM33 34H23V32H37.0052V34H33ZM32 38H28V36H32V38ZM31.9167 22L25.5208 30H23V22H31.9167ZM21 22V34C21 35.099 21.8958 36 23 36H26V38H24C23.4479 38 23 38.4479 23 39C23 39.5521 23.4479 40 24 40H36C36.5521 40 37 39.5521 37 39C37 38.4479 36.5521 38 36 38H34V36H37C38.099 36 39 35.099 39 34V22C39 20.8958 38.099 20 37 20H23C21.8958 20 21 20.8958 21 22Z" fill="#06779B"/>
</g>
<defs>
<clipPath id="clip0_73_5442">
<rect width="60" height="60" fill="white"/>
</clipPath>
</defs>
</svg>
