<svg width="60" height="60" viewBox="0 0 60 60" fill="none" xmlns="http://www.w3.org/2000/svg">
<g clip-path="url(#clip0_73_5495)">
<path fill-rule="evenodd" clip-rule="evenodd" d="M43.5143 44.4533H16.4883C15.9674 44.4533 15.5508 44.0366 15.5508 43.5158V16.4897C15.5508 15.9689 15.9674 15.5522 16.4883 15.5522H43.5195C44.0404 15.5522 44.457 15.9689 44.457 16.4897V43.521C44.4518 44.0366 44.0352 44.4533 43.5143 44.4533ZM17.4258 42.5783H42.582V17.4272H17.4258V42.5783Z" fill="#06779B"/>
<path fill-rule="evenodd" clip-rule="evenodd" d="M23.1562 17.4271C22.6354 17.4271 22.2188 17.0104 22.2188 16.4896V0.9375C22.2188 0.416667 22.6354 0 23.1562 0C23.6771 0 24.0938 0.416667 24.0938 0.9375V16.4844C24.0938 17.0052 23.6771 17.4271 23.1562 17.4271Z" fill="#06779B"/>
<path fill-rule="evenodd" clip-rule="evenodd" d="M27.7227 17.4271C27.2018 17.4271 26.7852 17.0104 26.7852 16.4896V0.9375C26.7852 0.416667 27.2018 0 27.7227 0C28.2383 0 28.6602 0.416667 28.6602 0.9375V16.4844C28.6602 17.0052 28.2383 17.4271 27.7227 17.4271Z" fill="#06779B"/>
<path fill-rule="evenodd" clip-rule="evenodd" d="M32.2852 17.4271C31.7643 17.4271 31.3477 17.0104 31.3477 16.4896V0.9375C31.3477 0.416667 31.7643 0 32.2852 0C32.8008 0 33.2227 0.416667 33.2227 0.9375V16.4844C33.2227 17.0052 32.8008 17.4271 32.2852 17.4271Z" fill="#06779B"/>
<path fill-rule="evenodd" clip-rule="evenodd" d="M36.8503 17.4271C36.3346 17.4271 35.918 17.0104 35.918 16.4896V0.9375C35.918 0.416667 36.3346 0 36.8503 0C37.3711 0 37.793 0.416667 37.793 0.9375V16.4844C37.793 17.0052 37.3659 17.4271 36.8503 17.4271Z" fill="#06779B"/>
<mask id="mask0_73_5495" style="mask-type:luminance" maskUnits="userSpaceOnUse" x="22" y="42" width="3" height="18">
<path d="M22.1367 42.4844H24.2565V60H22.1367V42.4844Z" fill="white"/>
</mask>
<g mask="url(#mask0_73_5495)">
<path fill-rule="evenodd" clip-rule="evenodd" d="M23.1562 60.0054C22.6354 60.0054 22.2188 59.5887 22.2188 59.0679V43.521C22.2188 43.0002 22.6354 42.5835 23.1562 42.5835C23.6771 42.5835 24.0938 43.0002 24.0938 43.521V59.0679C24.0938 59.5835 23.6771 60.0054 23.1562 60.0054Z" fill="#06779B"/>
</g>
<mask id="mask1_73_5495" style="mask-type:luminance" maskUnits="userSpaceOnUse" x="26" y="42" width="3" height="18">
<path d="M26.6992 42.4844H28.8138V60H26.6992V42.4844Z" fill="white"/>
</mask>
<g mask="url(#mask1_73_5495)">
<path fill-rule="evenodd" clip-rule="evenodd" d="M27.7266 60.0054C27.2057 60.0054 26.7891 59.5887 26.7891 59.0679V43.521C26.7891 43.0002 27.2057 42.5835 27.7266 42.5835C28.2422 42.5835 28.6641 43.0002 28.6641 43.521V59.0679C28.6641 59.5835 28.2422 60.0054 27.7266 60.0054Z" fill="#06779B"/>
</g>
<mask id="mask2_73_5495" style="mask-type:luminance" maskUnits="userSpaceOnUse" x="31" y="42" width="3" height="18">
<path d="M31.2539 42.4844H33.332V60H31.2539V42.4844Z" fill="white"/>
</mask>
<g mask="url(#mask2_73_5495)">
<path fill-rule="evenodd" clip-rule="evenodd" d="M32.2852 60.0054C31.7643 60.0054 31.3477 59.5887 31.3477 59.0679V43.521C31.3477 43.0002 31.7643 42.5835 32.2852 42.5835C32.8008 42.5835 33.2227 43.0002 33.2227 43.521V59.0679C33.2227 59.5835 32.8008 60.0054 32.2852 60.0054Z" fill="#06779B"/>
</g>
<mask id="mask3_73_5495" style="mask-type:luminance" maskUnits="userSpaceOnUse" x="35" y="42" width="3" height="18">
<path d="M35.8125 42.4844H37.9271V60H35.8125V42.4844Z" fill="white"/>
</mask>
<g mask="url(#mask3_73_5495)">
<path fill-rule="evenodd" clip-rule="evenodd" d="M36.8503 60.0054C36.3346 60.0054 35.918 59.5887 35.918 59.0679V43.521C35.918 43.0002 36.3346 42.5835 36.8503 42.5835C37.3711 42.5835 37.793 43.0002 37.793 43.521V59.0679C37.793 59.5835 37.3659 60.0054 36.8503 60.0054Z" fill="#06779B"/>
</g>
<path fill-rule="evenodd" clip-rule="evenodd" d="M55.0833 26.9585L43.5156 26.9429C42.9948 26.9429 42.5781 26.5158 42.5781 26.0002C42.5781 25.4845 43 25.0679 43.5156 25.0679L55.0781 25.0783C55.599 25.0783 56.0156 25.5054 56.0156 26.021C56.0208 26.5366 55.599 26.9585 55.0833 26.9585Z" fill="#06779B"/>
<mask id="mask4_73_5495" style="mask-type:luminance" maskUnits="userSpaceOnUse" x="54" y="22" width="7" height="7">
<path d="M54.043 22.9531H60.0013V28.974H54.043V22.9531Z" fill="white"/>
</mask>
<g mask="url(#mask4_73_5495)">
<path fill-rule="evenodd" clip-rule="evenodd" d="M57.0859 28.9375C55.4766 28.9375 54.1641 27.6302 54.1641 26.0156C54.1641 24.401 55.4714 23.0938 57.0859 23.0938C58.7005 23.0938 60.0078 24.401 60.0078 26.0156C60.0078 27.6302 58.6953 28.9375 57.0859 28.9375ZM57.0859 24.9688C56.5078 24.9688 56.0391 25.4375 56.0391 26.0156C56.0391 26.5937 56.5078 27.0625 57.0859 27.0625C57.6641 27.0625 58.1328 26.5937 58.1328 26.0156C58.1328 25.4375 57.6641 24.9688 57.0859 24.9688Z" fill="#06779B"/>
</g>
<path fill-rule="evenodd" clip-rule="evenodd" d="M55.0833 35.5103L43.5156 35.4946C42.9948 35.4946 42.5781 35.0728 42.5781 34.5571C42.5781 34.0415 43 33.6196 43.5156 33.6196L55.0781 33.6353C55.599 33.6353 56.0156 34.0571 56.0156 34.5728C56.0208 35.0936 55.599 35.5103 55.0833 35.5103Z" fill="#06779B"/>
<mask id="mask5_73_5495" style="mask-type:luminance" maskUnits="userSpaceOnUse" x="54" y="31" width="7" height="7">
<path d="M54.043 31.5781H60.0013V37.6042H54.043V31.5781Z" fill="white"/>
</mask>
<g mask="url(#mask5_73_5495)">
<path fill-rule="evenodd" clip-rule="evenodd" d="M57.0859 37.495C55.4766 37.495 54.1641 36.1825 54.1641 34.5679C54.1641 32.9585 55.4714 31.646 57.0859 31.646C58.7005 31.646 60.0078 32.9585 60.0078 34.5679C60.0078 36.1825 58.6953 37.495 57.0859 37.495ZM57.0859 33.521C56.5078 33.521 56.0391 33.9897 56.0391 34.5679C56.0391 35.1512 56.5078 35.62 57.0859 35.62C57.6641 35.62 58.1328 35.1512 58.1328 34.5679C58.1328 33.9897 57.6641 33.521 57.0859 33.521Z" fill="#06779B"/>
</g>
<path fill-rule="evenodd" clip-rule="evenodd" d="M50.3008 24.0937H43.5195C42.9987 24.0937 42.582 23.6771 42.582 23.1562C42.582 22.6354 42.9987 22.2187 43.5195 22.2187H49.3633V13.9687C49.3633 13.4531 49.7799 13.0312 50.3008 13.0312C50.8216 13.0312 51.2383 13.4531 51.2383 13.9687V23.1562C51.2383 23.6771 50.8164 24.0937 50.3008 24.0937Z" fill="#06779B"/>
<path fill-rule="evenodd" clip-rule="evenodd" d="M50.3008 14.9063C48.6914 14.9063 47.3789 13.599 47.3789 11.9844C47.3789 10.3698 48.6862 9.0625 50.3008 9.0625C51.9154 9.0625 53.2227 10.3698 53.2227 11.9844C53.2227 13.599 51.9102 14.9063 50.3008 14.9063ZM50.3008 10.9375C49.7227 10.9375 49.2539 11.4063 49.2539 11.9844C49.2539 12.5625 49.7227 13.0313 50.3008 13.0313C50.8789 13.0313 51.3477 12.5625 51.3477 11.9844C51.3477 11.4063 50.8737 10.9375 50.3008 10.9375Z" fill="#06779B"/>
<path fill-rule="evenodd" clip-rule="evenodd" d="M50.3008 47.5207C49.7799 47.5207 49.3633 47.104 49.3633 46.5832V38.3384H43.5195C42.9987 38.3384 42.582 37.9165 42.582 37.4009C42.582 36.88 42.9987 36.4634 43.5195 36.4634H50.3008C50.8216 36.4634 51.2383 36.88 51.2383 37.4009V46.5832C51.2383 47.104 50.8164 47.5207 50.3008 47.5207Z" fill="#06779B"/>
<path fill-rule="evenodd" clip-rule="evenodd" d="M50.3008 51.4897C48.6914 51.4897 47.3789 50.1825 47.3789 48.5679C47.3789 46.9585 48.6862 45.646 50.3008 45.646C51.9154 45.646 53.2227 46.9533 53.2227 48.5679C53.2227 50.1772 51.9102 51.4897 50.3008 51.4897ZM50.3008 47.521C49.7227 47.521 49.2539 47.9897 49.2539 48.5679C49.2539 49.146 49.7227 49.6147 50.3008 49.6147C50.8789 49.6147 51.3477 49.146 51.3477 48.5679C51.3477 47.9897 50.8737 47.521 50.3008 47.521Z" fill="#06779B"/>
<path fill-rule="evenodd" clip-rule="evenodd" d="M52.2708 32.6616L43.5156 32.646C42.9948 32.646 42.5781 32.2241 42.5781 31.7085C42.5781 31.1929 43 30.771 43.5156 30.771L52.2656 30.7866C52.7865 30.7866 53.2031 31.2085 53.2031 31.7241C53.2083 32.2397 52.7865 32.6616 52.2708 32.6616Z" fill="#06779B"/>
<path fill-rule="evenodd" clip-rule="evenodd" d="M52.2708 29.8071L43.5156 29.7915C42.9948 29.7915 42.5781 29.3696 42.5781 28.854C42.5781 28.3384 43 27.9165 43.5156 27.9165L52.2656 27.9321C52.7865 27.9321 53.2031 28.354 53.2031 28.8696C53.2083 29.3905 52.7865 29.8071 52.2708 29.8071Z" fill="#06779B"/>
<path fill-rule="evenodd" clip-rule="evenodd" d="M38.3112 39.2502H21.6914C21.1706 39.2502 20.7539 38.8335 20.7539 38.3127V21.6929C20.7539 21.172 21.1706 20.7554 21.6914 20.7554H38.3112C38.832 20.7554 39.2487 21.172 39.2487 21.6929V38.3127C39.2487 38.8283 38.8268 39.2502 38.3112 39.2502ZM22.6289 37.3752H37.3737V22.6304H22.6289V37.3752Z" fill="#06779B"/>
<path fill-rule="evenodd" clip-rule="evenodd" d="M33.7148 34.6509H26.293C25.7721 34.6509 25.3555 34.2342 25.3555 33.7134V26.2915C25.3555 25.7707 25.7721 25.354 26.293 25.354H33.7148C34.2357 25.354 34.6523 25.7707 34.6523 26.2915V33.7134C34.6523 34.2342 34.2357 34.6509 33.7148 34.6509ZM27.2305 32.7759H32.7773V27.229H27.2305V32.7759Z" fill="#06779B"/>
<path fill-rule="evenodd" clip-rule="evenodd" d="M4.92188 26.9585C4.40625 26.9585 3.98438 26.5366 3.98438 26.021C3.98438 25.5002 4.40104 25.0783 4.92188 25.0783L16.4844 25.0679C17 25.0679 17.4219 25.4845 17.4219 26.0002C17.4219 26.521 17.0052 26.9429 16.4844 26.9429L4.92188 26.9585Z" fill="#06779B"/>
<path fill-rule="evenodd" clip-rule="evenodd" d="M2.92187 28.9375C1.3125 28.9375 0 27.6302 0 26.0156C0 24.401 1.3125 23.0938 2.92187 23.0938C4.53125 23.0938 5.84375 24.401 5.84375 26.0156C5.84375 27.6302 4.53125 28.9375 2.92187 28.9375ZM2.92187 24.9688C2.34375 24.9688 1.875 25.4375 1.875 26.0156C1.875 26.5937 2.34375 27.0625 2.92187 27.0625C3.5 27.0625 3.96875 26.5937 3.96875 26.0156C3.96875 25.4375 3.49479 24.9688 2.92187 24.9688Z" fill="#06779B"/>
<path fill-rule="evenodd" clip-rule="evenodd" d="M4.92188 35.5103C4.40625 35.5103 3.98438 35.0936 3.98438 34.5728C3.98438 34.0519 4.40104 33.6353 4.92188 33.6353L16.4844 33.6196C17 33.6196 17.4219 34.0363 17.4219 34.5571C17.4219 35.078 17.0052 35.4946 16.4844 35.4946L4.92188 35.5103Z" fill="#06779B"/>
<path fill-rule="evenodd" clip-rule="evenodd" d="M2.92187 37.495C1.3125 37.495 0 36.1825 0 34.5679C0 32.9585 1.3125 31.646 2.92187 31.646C4.53125 31.646 5.84375 32.9585 5.84375 34.5679C5.84375 36.1825 4.53125 37.495 2.92187 37.495ZM2.92187 33.521C2.34375 33.521 1.875 33.9897 1.875 34.5679C1.875 35.1512 2.34375 35.62 2.92187 35.62C3.5 35.62 3.96875 35.1512 3.96875 34.5679C3.96875 33.9897 3.49479 33.521 2.92187 33.521Z" fill="#06779B"/>
<path fill-rule="evenodd" clip-rule="evenodd" d="M16.4844 24.0937H9.70312C9.18229 24.0937 8.76562 23.6771 8.76562 23.1562V13.9687C8.76562 13.4531 9.18229 13.0312 9.70312 13.0312C10.224 13.0312 10.6406 13.4531 10.6406 13.9687V22.2187H16.4844C17.0052 22.2187 17.4219 22.6354 17.4219 23.1562C17.4219 23.6771 17.0052 24.0937 16.4844 24.0937Z" fill="#06779B"/>
<path fill-rule="evenodd" clip-rule="evenodd" d="M9.70312 14.9063C8.09375 14.9063 6.78125 13.599 6.78125 11.9844C6.78125 10.3698 8.09375 9.0625 9.70312 9.0625C11.3125 9.0625 12.625 10.3698 12.625 11.9844C12.625 13.599 11.3125 14.9063 9.70312 14.9063ZM9.70312 10.9375C9.125 10.9375 8.65625 11.4063 8.65625 11.9844C8.65625 12.5625 9.125 13.0313 9.70312 13.0313C10.2813 13.0313 10.75 12.5625 10.75 11.9844C10.75 11.4063 10.2813 10.9375 9.70312 10.9375Z" fill="#06779B"/>
<path fill-rule="evenodd" clip-rule="evenodd" d="M9.70312 47.5207C9.18229 47.5207 8.76562 47.104 8.76562 46.5832V37.4009C8.76562 36.88 9.18229 36.4634 9.70312 36.4634H16.4844C17.0052 36.4634 17.4219 36.88 17.4219 37.4009C17.4219 37.9165 17.0052 38.3384 16.4844 38.3384H10.6406V46.5832C10.6406 47.104 10.2187 47.5207 9.70312 47.5207Z" fill="#06779B"/>
<path fill-rule="evenodd" clip-rule="evenodd" d="M9.70312 51.4897C8.09375 51.4897 6.78125 50.1825 6.78125 48.5679C6.78125 46.9585 8.09375 45.646 9.70312 45.646C11.3125 45.646 12.625 46.9533 12.625 48.5679C12.625 50.1772 11.3125 51.4897 9.70312 51.4897ZM9.70312 47.521C9.125 47.521 8.65625 47.9897 8.65625 48.5679C8.65625 49.146 9.125 49.6147 9.70312 49.6147C10.2813 49.6147 10.75 49.146 10.75 48.5679C10.75 47.9897 10.2813 47.521 9.70312 47.521Z" fill="#06779B"/>
<path fill-rule="evenodd" clip-rule="evenodd" d="M7.73438 32.6616C7.21875 32.6616 6.79688 32.2397 6.79688 31.7241C6.79688 31.2033 7.21354 30.7866 7.73438 30.7866L16.4844 30.771C17 30.771 17.4219 31.1877 17.4219 31.7085C17.4219 32.2241 17.0052 32.646 16.4844 32.646L7.73438 32.6616Z" fill="#06779B"/>
<path fill-rule="evenodd" clip-rule="evenodd" d="M7.73438 29.8071C7.21875 29.8071 6.79688 29.3905 6.79688 28.8696C6.79688 28.3488 7.21354 27.9321 7.73438 27.9321L16.4844 27.9165C17 27.9165 17.4219 28.3332 17.4219 28.854C17.4219 29.3748 17.0052 29.7915 16.4844 29.7915L7.73438 29.8071Z" fill="#06779B"/>
</g>
<defs>
<clipPath id="clip0_73_5495">
<rect width="60" height="60" fill="white"/>
</clipPath>
</defs>
</svg>
