<svg width="69" height="69" viewBox="0 0 69 69" fill="none" xmlns="http://www.w3.org/2000/svg">
<path opacity="0.25" fill-rule="evenodd" clip-rule="evenodd" d="M34.6615 67.926C53.0709 67.926 67.9948 52.9817 67.9948 34.547C67.9948 16.1123 53.0709 1.16797 34.6615 1.16797C16.252 1.16797 1.32812 16.1123 1.32812 34.547C1.32812 52.9817 16.252 67.926 34.6615 67.926Z" stroke="white" stroke-width="2"/>
<path d="M50.6615 33.8859C50.6532 37.9891 49.1586 41.948 46.4584 45.0195C43.7582 48.0909 40.038 50.0636 35.9964 50.5672C35.9062 50.5761 35.8152 50.5661 35.729 50.5379C35.6428 50.5097 35.5633 50.4638 35.4956 50.4031C35.4279 50.3424 35.3733 50.2683 35.3354 50.1854C35.2975 50.1025 35.277 50.0125 35.2752 49.9212V37.7615H39.1218C39.2971 37.7619 39.4706 37.726 39.6317 37.6561C39.7927 37.5862 39.9378 37.4837 40.0579 37.3551C40.1781 37.2264 40.2708 37.0743 40.3303 36.9081C40.3898 36.742 40.4149 36.5653 40.4039 36.3889C40.3756 36.0549 40.2225 35.7441 39.9756 35.5193C39.7287 35.2946 39.4064 35.1725 39.0737 35.1778H35.2752V31.3022C35.2752 30.617 35.5454 29.9598 36.0263 29.4752C36.5072 28.9907 37.1594 28.7185 37.8396 28.7185H40.4039C40.5793 28.7188 40.7528 28.6829 40.9139 28.613C41.0749 28.5431 41.22 28.4407 41.3401 28.312C41.4603 28.1834 41.553 28.0313 41.6125 27.8651C41.672 27.6989 41.6971 27.5222 41.6861 27.3459C41.6578 27.0118 41.5047 26.701 41.2578 26.4763C41.0109 26.2515 40.6886 26.1294 40.3559 26.1347H37.8396C36.4793 26.1347 35.1748 26.6792 34.213 27.6483C33.2512 28.6173 32.7108 29.9317 32.7108 31.3022V35.1778H28.8642C28.6889 35.1775 28.5153 35.2134 28.3543 35.2833C28.1933 35.3532 28.0482 35.4556 27.928 35.5843C27.8079 35.7129 27.7152 35.865 27.6556 36.0312C27.5961 36.1974 27.5711 36.3741 27.582 36.5504C27.6104 36.8845 27.7635 37.1952 28.0104 37.42C28.2573 37.6448 28.5796 37.7669 28.9123 37.7615H32.7108V49.9212C32.7113 50.0118 32.6928 50.1014 32.6567 50.1843C32.6205 50.2672 32.5675 50.3415 32.501 50.4024C32.4345 50.4633 32.356 50.5095 32.2707 50.5379C32.1853 50.5662 32.095 50.5762 32.0056 50.5672C23.5431 49.5337 17.004 42.1216 17.3406 33.2562C17.5295 28.878 19.4095 24.7477 22.5792 21.7468C25.7489 18.7459 29.9572 17.1122 34.3059 17.1944C38.6546 17.2766 42.7992 19.0681 45.855 22.1867C48.9107 25.3052 50.6356 29.5037 50.6615 33.8859Z" fill="#F9F6FF"/>
</svg>
