<svg width="69" height="70" viewBox="0 0 69 70" fill="none" xmlns="http://www.w3.org/2000/svg">
<path opacity="0.25" fill-rule="evenodd" clip-rule="evenodd" d="M34.6615 68.5901C53.0709 68.5901 67.9948 53.6458 67.9948 35.211C67.9948 16.7763 53.0709 1.83203 34.6615 1.83203C16.252 1.83203 1.32812 16.7763 1.32812 35.211C1.32812 53.6458 16.252 68.5901 34.6615 68.5901Z" stroke="white" stroke-width="2"/>
<path d="M33.9948 38.8725C36.296 38.8725 38.1615 37.0079 38.1615 34.7077C38.1615 32.4076 36.296 30.543 33.9948 30.543C31.6936 30.543 29.8281 32.4076 29.8281 34.7077C29.8281 37.0079 31.6936 38.8725 33.9948 38.8725Z" fill="#F9F6FF"/>
<path d="M39.7241 21.6914H28.2658C26.3319 21.6914 24.4773 22.4593 23.1098 23.8261C21.7423 25.1929 20.9741 27.0468 20.9741 28.9797V40.4328C20.9741 42.3658 21.7423 44.2196 23.1098 45.5865C24.4773 46.9533 26.3319 47.7212 28.2658 47.7212H39.7241C41.658 47.7212 43.5127 46.9533 44.8801 45.5865C46.2476 44.2196 47.0158 42.3658 47.0158 40.4328V28.9797C47.0158 27.0468 46.2476 25.1929 44.8801 23.8261C43.5127 22.4593 41.658 21.6914 39.7241 21.6914ZM33.995 40.9534C32.7588 40.9534 31.5504 40.587 30.5226 39.9006C29.4948 39.2142 28.6938 38.2385 28.2207 37.097C27.7477 35.9555 27.6239 34.6994 27.865 33.4875C28.1062 32.2757 28.7015 31.1626 29.5755 30.2889C30.4496 29.4152 31.5633 28.8202 32.7756 28.5792C33.988 28.3381 35.2447 28.4618 36.3867 28.9347C37.5288 29.4075 38.5049 30.2082 39.1916 31.2356C39.8784 32.2629 40.245 33.4707 40.245 34.7063C40.245 36.3631 39.5865 37.9521 38.4144 39.1237C37.2423 40.2953 35.6526 40.9534 33.995 40.9534ZM40.7658 29.5003C40.4568 29.5003 40.1547 29.4087 39.8977 29.2371C39.6408 29.0655 39.4405 28.8216 39.3222 28.5362C39.204 28.2508 39.173 27.9368 39.2333 27.6339C39.2936 27.3309 39.4424 27.0526 39.6609 26.8342C39.8795 26.6158 40.1579 26.467 40.461 26.4068C40.7641 26.3465 41.0782 26.3774 41.3637 26.4956C41.6492 26.6139 41.8933 26.814 42.065 27.0709C42.2367 27.3277 42.3283 27.6297 42.3283 27.9385C42.3283 28.3528 42.1637 28.75 41.8706 29.0429C41.5776 29.3358 41.1802 29.5003 40.7658 29.5003Z" fill="#F9F6FF"/>
</svg>
