<svg width="60" height="60" viewBox="0 0 60 60" fill="none" xmlns="http://www.w3.org/2000/svg">
<path d="M10.8125 11.3649H48.9688V35.3441H10.8125V11.3649ZM9.56771 37.8545H50.2188C50.9688 37.8545 51.4688 37.3545 51.4688 36.5993V10.1097C51.4688 9.35449 50.9688 8.85449 50.2188 8.85449H9.56771C8.81771 8.85449 8.3125 9.35449 8.3125 10.1097V36.5993C8.3125 37.2243 8.9375 37.8545 9.56771 37.8545Z" fill="#06779B"/>
<mask id="mask0_529_6333" style="mask-type:luminance" maskUnits="userSpaceOnUse" x="0" y="4" width="60" height="53">
<path d="M0 4.83887H60V56.4326H0V4.83887Z" fill="white"/>
</mask>
<g mask="url(#mask0_529_6333)">
<path d="M57.2236 53.292C56.9736 53.667 56.4736 53.917 55.9736 53.917H3.93715C3.43715 53.917 2.93715 53.667 2.68194 53.167C2.43194 52.792 2.31215 52.167 2.56215 51.7868L6.06215 43.7503C6.31215 43.2503 6.93715 42.8753 7.44236 42.8753C14.0674 42.8753 45.8434 42.8753 52.3434 42.8753C52.9684 42.8753 53.4684 43.2503 53.7184 43.7503L57.2236 51.7868C57.5986 52.417 57.4736 52.917 57.2236 53.292ZM6.93715 8.85449C6.93715 7.97428 7.56215 7.34408 8.43715 7.34408H51.4684C52.3434 7.34408 52.9684 7.97428 52.9684 8.85449V38.8545C52.9684 39.7347 52.3434 40.3649 51.4684 40.3649H8.43715C7.56215 40.3649 6.93715 39.7347 6.93715 38.8545V8.85449ZM59.5986 50.9118L56.0934 42.8753C55.8486 42.2503 55.3486 41.6201 54.7184 41.2451C55.2236 40.6201 55.4736 39.8597 55.4736 38.9847V8.85449C55.4736 6.58887 53.7184 4.83887 51.4684 4.83887H8.43715C6.18715 4.83887 4.43715 6.71908 4.43715 8.85449V38.8545C4.43715 39.7347 4.68715 40.4899 5.18715 41.1149C4.55694 41.4951 4.18715 42.1201 3.80694 42.7451L0.30694 50.7816C-0.19306 52.0368 -0.0628521 53.417 0.55694 54.5524C1.31215 55.6826 2.56215 56.4326 3.93715 56.4326H55.9736C57.3486 56.4326 58.5986 55.8076 59.3486 54.5524C60.0986 53.5472 60.2236 52.167 59.5986 50.9118Z" fill="#06779B"/>
</g>
<path d="M35.7025 49.2764H24.1973C23.4473 49.2764 22.9473 49.7764 22.9473 50.5316C22.9473 51.2816 23.4473 51.7868 24.1973 51.7868H35.7025C36.4577 51.7868 36.9577 51.2816 36.9577 50.5316C36.9577 49.7764 36.4577 49.2764 35.7025 49.2764Z" fill="#06779B"/>
<path d="M38.4577 23.667L37.9577 23.7972C37.2077 23.917 36.7077 24.4222 36.5827 25.1722C36.4577 25.7972 36.2025 26.4326 35.8327 26.9326C35.4577 27.5576 35.4577 28.3128 35.9525 28.8128L36.2025 29.1878L35.7025 29.693L35.3327 29.4378C34.7077 29.068 34.0775 29.068 33.4577 29.4378C32.9577 29.818 32.3327 30.0732 31.7025 30.193C30.9525 30.3232 30.4525 30.9482 30.3275 31.5732L30.2025 32.0732H29.5775L29.4525 31.5732C29.3275 30.8232 28.8275 30.3232 28.0775 30.193C27.4525 30.0732 26.8223 29.818 26.3223 29.4378C25.7025 29.068 24.9473 29.068 24.4473 29.568L24.0775 29.818L23.6973 29.068L23.9473 28.6878C24.3275 28.0628 24.3275 27.4326 23.9473 26.8024C23.5775 26.3024 23.3275 25.6774 23.1973 25.0524C23.0723 24.2972 22.4473 23.7972 21.8223 23.667L21.3223 23.542V22.9118L21.8223 22.792C22.5723 22.6618 23.0723 22.1566 23.1973 21.4066C23.3275 20.7816 23.5775 20.1566 23.9473 19.6514C24.3275 19.0212 24.3275 18.266 23.8275 17.766L23.6973 17.5107L24.1973 17.016L24.5775 17.266C25.0775 17.641 25.8275 17.641 26.5723 17.391C27.0775 17.016 27.7025 16.766 28.3275 16.6357C29.0775 16.516 29.5775 15.8805 29.7025 15.2555L29.8275 14.7555H30.4525L30.5775 15.2555C30.7025 16.0107 31.2025 16.516 31.9525 16.6357C32.5827 16.766 33.2077 17.016 33.7077 17.391C34.3275 17.766 35.0827 17.641 35.5827 17.266L35.9525 17.016L36.4577 17.5107L36.2025 17.891C35.8327 18.516 35.8327 19.1514 36.0827 19.7764C36.4577 20.2764 36.7077 20.9066 36.8327 21.5316C36.9577 22.2868 37.5827 22.792 38.2077 22.9118L38.7077 23.042V23.667H38.4577ZM39.4577 20.6566L38.8327 20.5264C38.7077 20.0264 38.4577 19.5212 38.2077 19.0212L38.5879 18.516C39.0827 17.891 38.9577 16.8857 38.4577 16.2607L37.0827 14.8753C36.4577 14.2503 35.4577 14.2503 34.8327 14.7555L34.3275 15.1305C33.8275 14.8753 33.3327 14.6253 32.8327 14.5055L32.7077 13.8701C32.5827 12.9951 31.8327 12.3701 30.9525 12.3701H29.0775C28.2025 12.3701 27.4525 12.9951 27.3275 13.8701L27.2025 14.3753C26.7025 14.5055 26.0723 14.7555 25.7025 15.0055L25.2025 14.6253C24.4473 14.1253 23.5775 14.1253 22.9473 14.7555L21.5723 16.1357C20.9473 16.766 20.9473 17.766 21.4421 18.3962L21.8223 18.8962C21.5723 19.4014 21.3223 19.9014 21.1973 20.4066L20.4473 20.6566C19.5671 20.7816 18.9473 21.5316 18.9473 22.4118V24.2972C18.9473 25.1722 19.5671 25.9274 20.4473 26.0524L21.0723 26.1774C21.1973 26.6826 21.4421 27.1826 21.6973 27.6878L21.3223 28.1878C20.8223 28.9378 20.9473 29.818 21.5723 30.443L22.9473 31.8232C23.5775 32.4535 24.5775 32.4535 25.2025 31.9535L25.7025 31.5732C26.2025 31.8232 26.7025 32.0732 27.2025 32.2035L27.3275 32.8337C27.4525 33.7139 28.2025 34.3389 29.0775 34.3389H30.9525C31.8327 34.3389 32.5827 33.7139 32.7077 32.8337L32.8327 32.2035C33.3327 32.0732 33.8275 31.8232 34.3275 31.5732L34.8327 31.9535C35.5827 32.4535 36.4577 32.3337 37.0827 31.8232L38.4577 30.443C39.0827 29.818 39.0827 28.8128 38.5879 28.1878L38.2077 27.6878C38.4577 27.1826 38.7077 26.6826 38.8327 26.1774L39.4577 26.0524C40.3379 25.9274 40.9629 25.1722 40.9629 24.2972V22.4118C40.9629 21.5316 40.3379 20.7816 39.4577 20.6566Z" fill="#06779B"/>
<path d="M29.9525 26.0521C28.4525 26.0521 27.2025 24.7969 27.2025 23.2917C27.2025 21.7865 28.4525 20.526 29.9525 20.526C31.4525 20.526 32.7077 21.7865 32.7077 23.2917C32.7077 24.7969 31.4525 26.0521 29.9525 26.0521ZM29.9525 18.0156C27.0775 18.0156 24.6973 20.4063 24.6973 23.2917C24.6973 26.1771 27.0775 28.5625 29.9525 28.5625C32.8327 28.5625 35.2077 26.1771 35.2077 23.2917C35.2077 20.4063 32.8327 18.0156 29.9525 18.0156Z" fill="#06779B"/>
</svg>
