<svg width="69" height="69" viewBox="0 0 69 69" fill="none" xmlns="http://www.w3.org/2000/svg">
<path opacity="0.25" fill-rule="evenodd" clip-rule="evenodd" d="M34.3333 67.926C52.7428 67.926 67.6667 52.9817 67.6667 34.547C67.6667 16.1123 52.7428 1.16797 34.3333 1.16797C15.9238 1.16797 1 16.1123 1 34.547C1 52.9817 15.9238 67.926 34.3333 67.926Z" stroke="white" stroke-width="2"/>
<path d="M45.9403 19.6914H24.0653C23.5127 19.6914 22.9828 19.9108 22.5921 20.3013C22.2014 20.6918 21.9819 21.2215 21.9819 21.7738V43.6388C21.9819 44.1911 22.2014 44.7207 22.5921 45.1113C22.9828 45.5018 23.5127 45.7212 24.0653 45.7212H45.9403C46.4928 45.7212 47.0227 45.5018 47.4134 45.1113C47.8041 44.7207 48.0236 44.1911 48.0236 43.6388V21.7738C48.0236 21.2215 47.8041 20.6918 47.4134 20.3013C47.0227 19.9108 46.4928 19.6914 45.9403 19.6914ZM30.8361 38.9534C30.8361 39.2296 30.7264 39.4944 30.531 39.6897C30.3357 39.8849 30.0707 39.9946 29.7944 39.9946C29.5182 39.9946 29.2532 39.8849 29.0579 39.6897C28.8625 39.4944 28.7528 39.2296 28.7528 38.9534V30.6239C28.7528 30.3478 28.8625 30.0829 29.0579 29.8877C29.2532 29.6924 29.5182 29.5827 29.7944 29.5827C30.0707 29.5827 30.3357 29.6924 30.531 29.8877C30.7264 30.0829 30.8361 30.3478 30.8361 30.6239V38.9534ZM29.7944 28.0209C29.4854 28.0209 29.1833 27.9293 28.9264 27.7577C28.6694 27.5861 28.4691 27.3422 28.3509 27.0568C28.2326 26.7714 28.2017 26.4574 28.262 26.1545C28.3222 25.8515 28.4711 25.5732 28.6896 25.3548C28.9081 25.1364 29.1865 24.9876 29.4896 24.9274C29.7927 24.8671 30.1069 24.898 30.3924 25.0162C30.6779 25.1345 30.9219 25.3346 31.0936 25.5915C31.2653 25.8483 31.3569 26.1503 31.3569 26.4591C31.3569 26.8734 31.1923 27.2706 30.8993 27.5635C30.6063 27.8564 30.2088 28.0209 29.7944 28.0209ZM42.2944 38.9534C42.2944 39.2296 42.1847 39.4944 41.9893 39.6897C41.794 39.8849 41.529 39.9946 41.2528 39.9946C40.9765 39.9946 40.7115 39.8849 40.5162 39.6897C40.3208 39.4944 40.2111 39.2296 40.2111 38.9534V34.2681C40.2111 33.5777 39.9367 32.9156 39.4484 32.4275C38.96 31.9393 38.2976 31.6651 37.6069 31.6651C36.9163 31.6651 36.2539 31.9393 35.7655 32.4275C35.2771 32.9156 35.0028 33.5777 35.0028 34.2681V38.9534C35.0028 39.2296 34.893 39.4944 34.6977 39.6897C34.5023 39.8849 34.2374 39.9946 33.9611 39.9946C33.6848 39.9946 33.4199 39.8849 33.2245 39.6897C33.0292 39.4944 32.9194 39.2296 32.9194 38.9534V30.6239C32.9187 30.3677 33.0125 30.1202 33.183 29.9288C33.3534 29.7374 33.5885 29.6155 33.8432 29.5865C34.0979 29.5575 34.3544 29.6234 34.5635 29.7716C34.7726 29.9197 34.9198 30.1398 34.9767 30.3896C35.6816 29.9121 36.5032 29.6354 37.3535 29.5894C38.2038 29.5434 39.0506 29.7297 39.8029 30.1285C40.5552 30.5272 41.1846 31.1232 41.6236 31.8526C42.0625 32.5819 42.2945 33.4169 42.2944 34.2681V38.9534Z" fill="#F9F6FF"/>
</svg>
