<svg width="26" height="26" viewBox="0 0 26 26" fill="none" xmlns="http://www.w3.org/2000/svg">
<path d="M5.6875 23.5625H20.3125" stroke="#F9F6FF" stroke-width="1.33333" stroke-linecap="round" stroke-linejoin="round"/>
<path d="M13 13.8125C14.7949 13.8125 16.25 12.3574 16.25 10.5625C16.25 8.76757 14.7949 7.3125 13 7.3125C11.2051 7.3125 9.75 8.76757 9.75 10.5625C9.75 12.3574 11.2051 13.8125 13 13.8125Z" stroke="#F9F6FF" stroke-width="1.33333" stroke-linecap="round" stroke-linejoin="round"/>
<path d="M21.125 10.5625C21.125 17.875 13 23.5625 13 23.5625C13 23.5625 4.875 17.875 4.875 10.5625C4.875 8.40762 5.73102 6.34099 7.25476 4.81726C8.77849 3.29352 10.8451 2.4375 13 2.4375C15.1549 2.4375 17.2215 3.29352 18.7452 4.81726C20.269 6.34099 21.125 8.40762 21.125 10.5625V10.5625Z" stroke="#F9F6FF" stroke-width="1.5" stroke-linecap="round" stroke-linejoin="round"/>
</svg>
