<svg width="60" height="60" viewBox="0 0 60 60" fill="none" xmlns="http://www.w3.org/2000/svg">
<mask id="mask0_73_5551" style="mask-type:luminance" maskUnits="userSpaceOnUse" x="0" y="11" width="60" height="35">
<path d="M0 11H60V46H0V11Z" fill="white"/>
</mask>
<g mask="url(#mask0_73_5551)">
<path d="M33.5612 38.2656H35.3581C35.4779 37.474 35.5872 36.6198 35.6966 35.7292H33.5612V38.2656ZM24.6758 44.6823H26.6758V39.3229H24.5039L24.6758 44.6823ZM33.5612 44.6823H34.0508C34.0508 44.6823 34.6654 42.5469 35.2018 39.3229H33.5612V44.6823ZM42.4258 44.6823H44.1966V46H45.1549V39.3229H41.2695C41.8216 42.5625 42.4258 44.6823 42.4258 44.6823ZM41.1185 38.2656H45.1706V35.7292H40.7799C40.8737 36.6198 40.9935 37.474 41.1185 38.2656ZM55.1497 35.3021C54.9674 34.474 54.7383 33.6406 54.4779 32.8333L58.1341 29.5833L53.7435 22.0677L49.0664 23.5729C48.4935 22.9427 47.8789 22.3385 47.2435 21.7708L48.7695 17.1458L41.1654 12.8021L37.8789 16.4219C37.0612 16.1615 36.2227 15.9323 35.3841 15.7552L34.3737 11H25.5977L24.5768 15.7656C23.7383 15.9479 22.8997 16.1719 22.082 16.4323L18.7956 12.8125L11.1966 17.1458L12.7174 21.7708C12.082 22.3385 11.4674 22.9427 10.8945 23.5729L6.21745 22.0677L1.82682 29.5833L5.48307 32.8333C5.22266 33.6406 4.99349 34.474 4.81641 35.3021L0.00390625 36.3125V44.9896L4.82682 46H7.92057C7.48828 44.2448 7.27474 42.4531 7.27474 40.651C7.27474 28.2344 17.4414 18.1771 29.9987 18.1771C42.556 18.1771 52.7227 28.2344 52.7227 40.651C52.7227 42.4531 52.5091 44.2448 52.0768 46H55.1706L59.9935 44.9896V36.3125L55.1497 35.3021ZM29.9883 19.9896C18.4518 19.9896 9.09766 29.2396 9.09766 40.651C9.09766 42.4531 9.33724 44.2552 9.80078 46H13.7383V32.8958H14.806V46H15.7643V44.6823H17.5508L17.8372 35.1719H17.4206V33.1771H17.8997L18.0195 29.2031H17.5508V27.651H18.0664L18.1029 26.5365H20.0091L20.0456 27.651H20.5612V29.2031H20.0924L20.2122 33.1771H20.6914V35.1719H20.2747L20.5612 44.6823H21.6654L21.9518 35.1719H21.5299V33.1771H22.0091L22.1289 29.2031H21.6654V27.651H22.181L22.2174 26.5365H24.1237L24.1602 27.651H24.6758V29.2031H24.207L24.3268 33.1771H24.806V35.1719H24.3841L24.4831 38.2656H26.6758V37.375C26.6758 36.6771 27.2539 36.1198 27.9466 36.1198C28.6445 36.1198 29.2174 36.6771 29.2174 37.3646V35.125C29.2174 33.8802 30.2383 32.8698 31.4987 32.8698C32.5195 32.9167 33.3685 33.6771 33.5247 34.6719H35.7904C35.9206 33.1563 36.0195 31.5521 36.0195 29.9062H40.4466C40.4466 31.5521 40.5299 33.1667 40.6706 34.6719H46.2227V46H50.1602C50.6237 44.2552 50.8685 42.4531 50.8685 40.651C50.8789 29.2396 41.5247 19.9896 29.9883 19.9896Z" fill="#06779B"/>
</g>
</svg>
