<svg width="27" height="28" viewBox="0 0 27 28" fill="none" xmlns="http://www.w3.org/2000/svg">
<path d="M9.63525 13.5179C10.4928 15.288 11.9247 16.7156 13.6978 17.5682C13.8285 17.6301 13.9732 17.6569 14.1175 17.6459C14.2618 17.6349 14.4007 17.5866 14.5207 17.5057L17.1248 15.7669C17.2399 15.6889 17.3728 15.6413 17.5113 15.6286C17.6497 15.6158 17.7891 15.6383 17.9165 15.694L22.7915 17.7868C22.9581 17.8561 23.0973 17.9783 23.1877 18.1344C23.278 18.2906 23.3145 18.4721 23.2915 18.651C23.137 19.8564 22.5483 20.9643 21.6357 21.7673C20.7231 22.5702 19.549 23.0133 18.3332 23.0136C14.5759 23.0136 10.9726 21.5217 8.31583 18.8662C5.65906 16.2106 4.1665 12.6089 4.1665 8.8534C4.16678 7.63812 4.61006 6.46457 5.41341 5.55236C6.21675 4.64015 7.32511 4.05177 8.53109 3.89733C8.71009 3.87435 8.89168 3.91082 9.04791 4.00112C9.20413 4.09143 9.32632 4.23056 9.39567 4.3971L11.4894 9.28028C11.5439 9.40559 11.5666 9.54236 11.5557 9.67853C11.5448 9.81471 11.5006 9.94612 11.4269 10.0612L9.68734 12.7058C9.60989 12.8254 9.56444 12.9629 9.55532 13.1051C9.5462 13.2473 9.57372 13.3894 9.63525 13.5179V13.5179Z" stroke="#F9F6FF" stroke-width="1.5" stroke-linecap="round" stroke-linejoin="round"/>
</svg>
