<svg width="70" height="69" viewBox="0 0 70 69" fill="none" xmlns="http://www.w3.org/2000/svg">
<path opacity="0.25" fill-rule="evenodd" clip-rule="evenodd" d="M34.9974 67.926C53.4069 67.926 68.3307 52.9817 68.3307 34.547C68.3307 16.1123 53.4069 1.16797 34.9974 1.16797C16.5879 1.16797 1.66406 16.1123 1.66406 34.547C1.66406 52.9817 16.5879 67.926 34.9974 67.926Z" stroke="white" stroke-width="2"/>
<path d="M50.9926 26.1606L47.0603 30.0781C46.2791 39.1755 38.5968 46.2426 29.4171 46.2426C27.5291 46.2426 25.9666 45.9433 24.7817 45.3576C23.8312 44.876 23.4405 44.3685 23.3364 44.2123C23.2502 44.0814 23.1946 43.9328 23.1739 43.7776C23.1531 43.6223 23.1677 43.4643 23.2165 43.3155C23.2653 43.1666 23.3471 43.0307 23.4558 42.9178C23.5645 42.8049 23.6972 42.718 23.8442 42.6635C23.8702 42.6505 26.9431 41.4792 28.9353 39.2276C27.6998 38.3483 26.6139 37.276 25.7192 36.0519C23.9353 33.6312 22.0473 29.4274 23.1801 23.1542C23.2157 22.9677 23.3011 22.7943 23.4271 22.6523C23.5532 22.5102 23.7153 22.4049 23.8963 22.3473C24.0778 22.2878 24.2723 22.2795 24.4583 22.3231C24.6443 22.3667 24.8147 22.4606 24.9509 22.5946C24.99 22.6466 29.3259 26.9155 34.6254 28.2951V27.5012C34.6305 26.6757 34.7983 25.8592 35.1191 25.0985C35.4399 24.3378 35.9074 23.6477 36.495 23.0676C37.0827 22.4875 37.7788 22.0287 38.5438 21.7176C39.3088 21.4064 40.1277 21.2489 40.9536 21.254C42.0375 21.2695 43.099 21.5653 44.0346 22.1127C44.9702 22.6601 45.7479 23.4404 46.2921 24.3776H50.2504C50.4561 24.377 50.6573 24.4372 50.8288 24.5507C51.0003 24.6642 51.1343 24.8258 51.214 25.0153C51.289 25.2076 51.3081 25.4173 51.2689 25.62C51.2297 25.8226 51.1339 26.0101 50.9926 26.1606Z" fill="#F9F6FF"/>
</svg>
