<svg width="70" height="70" viewBox="0 0 70 70" fill="none" xmlns="http://www.w3.org/2000/svg">
<path opacity="0.25" fill-rule="evenodd" clip-rule="evenodd" d="M34.9974 68.5901C53.4069 68.5901 68.3307 53.6458 68.3307 35.211C68.3307 16.7763 53.4069 1.83203 34.9974 1.83203C16.5879 1.83203 1.66406 16.7763 1.66406 35.211C1.66406 53.6458 16.5879 68.5901 34.9974 68.5901Z" stroke="white" stroke-width="2"/>
<g clip-path="url(#clip0_912_7961)">
<path d="M49.508 27.1311C49.3883 26.6512 49.154 26.2076 48.8252 25.8381C48.4964 25.4686 48.0828 25.1843 47.62 25.0096C43.1668 23.2917 36.0575 23.3047 35.6668 23.3047C35.2762 23.3047 28.1668 23.2917 23.7137 25.0096C23.2509 25.1843 22.8373 25.4686 22.5085 25.8381C22.1797 26.2076 21.9454 26.6512 21.8257 27.1311C21.4871 28.4195 21.0835 30.7882 21.0835 34.7057C21.0835 38.6232 21.4871 40.9919 21.8257 42.2804C21.9454 42.7602 22.1797 43.2039 22.5085 43.5734C22.8373 43.9428 23.2509 44.2271 23.7137 44.4018C27.9845 46.0547 34.6772 46.1068 35.5757 46.1068H35.758C36.6564 46.1068 43.3491 46.0547 47.62 44.4018C48.0828 44.2271 48.4964 43.9428 48.8252 43.5734C49.154 43.2039 49.3883 42.7602 49.508 42.2804C49.8465 40.9919 50.2502 38.6232 50.2502 34.7057C50.2502 30.7882 49.8465 28.4195 49.508 27.1311ZM40.12 35.1352L33.87 39.3C33.7871 39.361 33.6864 39.393 33.5835 39.3911C33.4972 39.3879 33.4128 39.3657 33.3361 39.326C33.2529 39.2827 33.1833 39.2173 33.135 39.1369C33.0867 39.0565 33.0617 38.9643 33.0627 38.8705V30.541C33.0617 30.4472 33.0867 30.355 33.135 30.2746C33.1833 30.1942 33.2529 30.1287 33.3361 30.0854C33.4191 30.0412 33.5126 30.0202 33.6066 30.0248C33.7006 30.0294 33.7916 30.0593 33.87 30.1115L40.12 34.2762C40.1926 34.322 40.2524 34.3853 40.2939 34.4604C40.3354 34.5355 40.3571 34.6199 40.3571 34.7057C40.3571 34.7915 40.3354 34.8759 40.2939 34.951C40.2524 35.0261 40.1926 35.0895 40.12 35.1352Z" fill="#F9F6FF"/>
</g>
<defs>
<clipPath id="clip0_912_7961">
<rect width="33.3333" height="33.3181" fill="white" transform="translate(19 18.0469)"/>
</clipPath>
</defs>
</svg>
