<svg width="100%" height="80" viewBox="0 0 1335 80" fill="none" xmlns="http://www.w3.org/2000/svg" preserveAspectRatio="xMidYMid meet">
    <circle cx="40" cy="40" r="40" fill="white" />
    <circle cx="465" cy="40" r="40" fill="white" />
    <circle cx="884" cy="40" r="40" fill="white" />
    <circle cx="1295" cy="40" r="40" fill="white" />
    <line x1="94" y1="42.1127" x2="415" y2="42.1127" stroke="white" stroke-width="2" />
    <line x1="899" y1="44" x2="1245" y2="44" stroke="white" stroke-width="2" />
    <line x1="519" y1="44" x2="834" y2="44" stroke="white" stroke-width="2" />
    <path d="M38.8 56V32.46L33.4 35.76V30.44L38.8 27.2H43.72V56H38.8Z" fill="#3B799E" />
    <path
        d="M455 55.96V51.76L467.32 40.78C468.28 39.9267 468.947 39.12 469.32 38.36C469.693 37.6 469.88 36.8667 469.88 36.16C469.88 35.2 469.673 34.3467 469.26 33.6C468.847 32.84 468.273 32.24 467.54 31.8C466.82 31.36 465.987 31.14 465.04 31.14C464.04 31.14 463.153 31.3733 462.38 31.84C461.62 32.2933 461.027 32.9 460.6 33.66C460.173 34.42 459.973 35.24 460 36.12H455.04C455.04 34.2 455.467 32.5267 456.32 31.1C457.187 29.6733 458.373 28.5667 459.88 27.78C461.4 26.9933 463.153 26.6 465.14 26.6C466.98 26.6 468.633 27.0133 470.1 27.84C471.567 28.6533 472.72 29.7867 473.56 31.24C474.4 32.68 474.82 34.34 474.82 36.22C474.82 37.5933 474.633 38.7467 474.26 39.68C473.887 40.6133 473.327 41.4733 472.58 42.26C471.847 43.0467 470.933 43.92 469.84 44.88L461.1 52.62L460.66 51.42H474.82V55.96H455Z"
        fill="#3B799E" />
    <path
        d="M883.04 56.54C881.6 56.54 880.24 56.26 878.96 55.7C877.68 55.14 876.567 54.3467 875.62 53.32C874.687 52.2933 874.013 51.08 873.6 49.68L878.26 48.42C878.593 49.5667 879.2 50.4533 880.08 51.08C880.973 51.6933 881.953 51.9933 883.02 51.98C883.967 51.98 884.813 51.76 885.56 51.32C886.307 50.88 886.893 50.2867 887.32 49.54C887.747 48.78 887.96 47.9333 887.96 47C887.96 45.5733 887.5 44.38 886.58 43.42C885.66 42.46 884.473 41.98 883.02 41.98C882.58 41.98 882.147 42.04 881.72 42.16C881.307 42.28 880.907 42.4467 880.52 42.66L878.32 38.86L888 30.58L888.42 31.74H874.72V27.2H892.38V31.76L884.6 39.24L884.56 37.82C886.307 37.94 887.793 38.4267 889.02 39.28C890.26 40.1333 891.207 41.2333 891.86 42.58C892.527 43.9267 892.86 45.4 892.86 47C892.86 48.8133 892.413 50.44 891.52 51.88C890.64 53.32 889.453 54.46 887.96 55.3C886.48 56.1267 884.84 56.54 883.04 56.54Z"
        fill="#3B799E" />
    <path
        d="M1297.76 55V50.24H1285V45.74L1294.22 26.2H1299.72L1290.5 45.74H1297.76V38.24H1302.64V45.74H1305.34V50.24H1302.64V55H1297.76Z"
        fill="#3B799E" />
</svg>